HIERARCHY
ROOT Hips
{
	OFFSET	0.000000	0.000000	0.000000
	CHANNELS 6 Xposition Yposition Zposition Zrotation Xrotation Yrotation
	JOINT LeftUpLeg
	{
		OFFSET	12.830505	-7.049846	-1.643436
		CHANNELS 3 Zrotation Xrotation Yrotation
		JOINT LeftLeg
		{
			OFFSET	0.620834	-39.957500	-1.919341
			CHANNELS 3 Zrotation Xrotation Yrotation
			JOINT LeftFoot
			{
				OFFSET	-0.413890	-44.704761	-3.870325
				CHANNELS 3 Zrotation Xrotation Yrotation
				JOINT LeftFootHeel
				{
					OFFSET	0.164738	-8.918193	-6.555130
					CHANNELS 3 Zrotation Xrotation Yrotation
					End Site
					{
						OFFSET	-0.604053	0.000000	21.044330
					}
				}
			}
		}
	}
	JOINT RightUpLeg
	{
		OFFSET	-12.830505	-7.049846	-1.643436
		CHANNELS 3 Zrotation Xrotation Yrotation
		JOINT RightLeg
		{
			OFFSET	-0.620834	-39.957500	-1.919341
			CHANNELS 3 Zrotation Xrotation Yrotation
			JOINT RightFoot
			{
				OFFSET	0.413890	-44.704761	-3.870325
				CHANNELS 3 Zrotation Xrotation Yrotation
				JOINT RightFootHeel
				{
					OFFSET	-0.164738	-8.918193	-6.555130
					CHANNELS 3 Zrotation Xrotation Yrotation
					End Site
					{
						OFFSET	0.604053	0.000000	21.044330
					}
				}
			}
		}
	}
	JOINT Spine
	{
		OFFSET	0.000000	12.498170	1.820647
		CHANNELS 3 Zrotation Xrotation Yrotation
		JOINT Spine1
		{
			OFFSET	0.000000	7.620000	0.000000
			CHANNELS 3 Zrotation Xrotation Yrotation
			JOINT LeftShoulder
			{
				OFFSET	9.167800	29.136339	-5.551221
				CHANNELS 3 Zrotation Xrotation Yrotation
				JOINT LeftArm
				{
					OFFSET	12.133453	-3.880866	1.461963
					CHANNELS 3 Zrotation Xrotation Yrotation
					JOINT LeftForeArm
					{
						OFFSET	2.507115	-31.664908	-1.069404
						CHANNELS 3 Zrotation Xrotation Yrotation
						JOINT LeftHand
						{
							OFFSET	4.116172	-24.512624	5.009439
							CHANNELS 3 Zrotation Xrotation Yrotation
							End Site
							{
								OFFSET	-0.213136	-10.931856	2.182134
							}
						}
					}
				}
			}
			JOINT RightShoulder
			{
				OFFSET	-9.167800	29.136339	-5.551221
				CHANNELS 3 Zrotation Xrotation Yrotation
				JOINT RightArm
				{
					OFFSET	-12.133453	-3.880866	1.461963
					CHANNELS 3 Zrotation Xrotation Yrotation
					JOINT RightForeArm
					{
						OFFSET	-2.507115	-31.664908	-1.069404
						CHANNELS 3 Zrotation Xrotation Yrotation
						JOINT RightHand
						{
							OFFSET	-4.116172	-24.512624	5.009439
							CHANNELS 3 Zrotation Xrotation Yrotation
							End Site
							{
								OFFSET	0.213136	-10.931856	2.182134
							}
						}
					}
				}
			}
			JOINT Neck
			{
				OFFSET	0.000000	32.926272	-3.635654
				CHANNELS 3 Zrotation Xrotation Yrotation
				JOINT Head
				{
					OFFSET	0.000000	12.481178	4.646143
					CHANNELS 3 Zrotation Xrotation Yrotation
					End Site
					{
						OFFSET	0.000000	17.715204	-2.222063
					}
				}
			}
		}
	}
}
MOTION
Frames:     8
Frame Time: 0.016667
0.000000	103.428230	0.000000	-0.699067	-0.769327	-0.745560	2.673444	0.653549	0.402497	-0.806686	-1.133892	0.853107	-0.882174	1.391449	-2.226654	0.	0.	0.	0.658719	2.387575	-0.945564	1.170300	-2.409930	-1.302559	-1.217324	0.485337	-3.573452	0.	0.	0.	0.000000	0.000000	0.000002	0.414618	0.722310	-0.776476	1.016038	2.013125	4.636421	-2.111693	-0.473700	-1.972768	3.306194	0.476727	-4.237536	-5.389687	-1.009508	-2.115878	-1.756946	1.684517	0.305652	-1.588865	4.076718	9.095784	2.994871	-3.432732	-5.537959	1.247559	-8.206434	-7.246028	1.106152	-3.809404	5.705581	-0.730584	7.110627	2.915749	
0.000000	103.428230	0.000000	-0.699067	-0.769327	-0.745560	2.673444	0.653549	0.402497	-0.806686	-1.133892	0.853107	-0.882174	1.391449	-2.226654	0.	0.	0.	0.658719	2.387575	-0.945564	1.170300	-2.409930	-1.302559	-1.217324	0.485337	-3.573452	0.	0.	0.	0.000000	0.000000	0.000002	0.414618	0.722310	-0.776476	1.016038	2.013125	4.636421	-2.111693	-0.473700	-1.972768	3.305366	0.469753	-4.245247	-5.384252	-1.008751	-2.109946	-1.756946	1.684517	0.305652	-1.588865	4.076718	9.095784	2.994871	-3.432732	-5.537959	1.240790	-8.201213	-7.250619	1.106152	-3.809404	5.705581	-0.728519	7.117605	2.914440	
0.000000	103.428230	0.000000	-0.699067	-0.769327	-0.745560	2.673444	0.653549	0.402497	-0.806686	-1.133892	0.853107	-0.882174	1.391449	-2.226654	0.	0.	0.	0.658719	2.387575	-0.945564	1.170300	-2.409930	-1.302559	-1.217324	0.485337	-3.573452	0.	0.	0.	0.000000	0.000000	0.000002	0.414618	0.722310	-0.776476	1.016038	2.013125	4.636421	-2.108661	-0.474572	-1.972528	3.313593	0.460397	-4.251271	-5.371164	-1.030168	-2.103642	-1.756946	1.684517	0.305652	-1.588865	4.076718	9.095784	2.994871	-3.432732	-5.537959	1.227265	-8.190777	-7.259812	1.106152	-3.809404	5.705581	-0.722515	7.137939	2.910615	
0.000000	103.428230	0.000000	-0.699067	-0.769327	-0.745560	2.673444	0.653549	0.402497	-0.806686	-1.133892	0.853107	-0.882174	1.391449	-2.226654	0.	0.	0.	0.658719	2.387575	-0.945564	1.170300	-2.409930	-1.302559	-1.217324	0.485337	-3.573452	0.	0.	0.	0.000000	0.000000	0.000002	0.414618	0.722310	-0.776476	1.016038	2.013125	4.636421	-2.089639	-0.480057	-1.971018	3.313271	0.459763	-4.250353	-5.368422	-1.052427	-2.099289	-1.756946	1.684517	0.305652	-1.588865	4.076718	9.095784	2.994871	-3.432732	-5.537959	1.227265	-8.190777	-7.259812	1.106152	-3.809404	5.705581	-0.718862	7.150306	2.908290	
0.000000	103.428230	0.000000	-0.699067	-0.769327	-0.745560	2.673444	0.653549	0.402497	-0.806686	-1.133892	0.853107	-0.882174	1.391449	-2.226654	0.	0.	0.	0.658719	2.387575	-0.945564	1.170300	-2.409930	-1.302559	-1.217324	0.485337	-3.573452	0.	0.	0.	0.000000	0.000000	0.000002	0.414618	0.722310	-0.776476	1.016038	2.013125	4.636421	-2.083153	-0.481921	-1.970505	3.313349	0.459489	-4.250009	-5.367260	-1.055001	-2.097931	-1.756946	1.684517	0.305652	-1.588865	4.076718	9.095784	2.994871	-3.432732	-5.537959	1.224770	-8.188848	-7.261498	1.106152	-3.809404	5.705581	-0.717015	7.156564	2.907109	
0.000000	103.428230	0.000000	-0.699067	-0.769327	-0.745560	2.673444	0.653549	0.402497	-0.806686	-1.133892	0.853107	-0.882174	1.391449	-2.226654	0.	0.	0.	0.658719	2.387575	-0.945564	1.170300	-2.409930	-1.302559	-1.217324	0.485337	-3.573452	0.	0.	0.	0.000000	0.000000	0.000002	0.414618	0.722310	-0.776476	1.016038	2.013125	4.636421	-2.076659	-0.483796	-1.969986	3.313419	0.459225	-4.249674	-5.365952	-1.053777	-2.096713	-1.756946	1.684517	0.305652	-1.588865	4.076718	9.095784	2.994871	-3.432732	-5.537959	1.224770	-8.188848	-7.261498	1.106152	-3.809404	5.705581	-0.715144	7.162902	2.905915	
0.000000	103.428230	0.000000	-0.699067	-0.769327	-0.745560	2.673444	0.653549	0.402497	-0.806686	-1.133892	0.853107	-0.882174	1.391449	-2.226654	0.	0.	0.	0.658719	2.387575	-0.945564	1.170300	-2.409930	-1.302559	-1.217324	0.485337	-3.573452	0.	0.	0.	0.000000	0.000000	0.000002	0.414618	0.722310	-0.776476	1.016038	2.013125	4.636421	-2.073432	-0.484724	-1.969723	3.329820	0.454426	-4.247299	-5.367400	-1.049974	-2.094419	-1.756946	1.684517	0.305652	-1.588865	4.076718	9.095784	2.994871	-3.432732	-5.537959	1.205983	-8.174340	-7.274253	1.106152	-3.809404	5.705581	-0.709471	7.182134	2.902288	
0.000000	103.428230	0.000000	-0.699067	-0.769327	-0.745560	2.673444	0.653549	0.402497	-0.806686	-1.133892	0.853107	-0.882174	1.391449	-2.226654	0.	0.	0.	0.658719	2.387575	-0.945564	1.170300	-2.409930	-1.302559	-1.217324	0.485337	-3.573452	0.	0.	0.	0.000000	0.000000	0.000002	0.414618	0.722310	-0.776476	1.016038	2.013125	4.636421	-2.073432	-0.484724	-1.969723	3.339254	0.451738	-4.246022	-5.377027	-1.047875	-2.095580	-1.756946	1.684517	0.305652	-1.588865	4.076718	9.095784	2.994871	-3.432732	-5.537959	1.191976	-8.163515	-7.283761	1.106152	-3.809404	5.705581	-0.708556	7.185214	2.901710	
